<?xml version="1.0" standalone="no"?><!-- Generator: Gravit.io --><svg xmlns="http://www.w3.org/2000/svg" xmlns:xlink="http://www.w3.org/1999/xlink" style="isolation:isolate" viewBox="0 0 90 90" width="90" height="90"><defs><clipPath id="_clipPath_V0BHlCDzAX2ZLtO8IMQnWcLNpYoscRWc"><rect width="90" height="90"/></clipPath></defs><g clip-path="url(#_clipPath_V0BHlCDzAX2ZLtO8IMQnWcLNpYoscRWc)"><linearGradient id="_lgradient_0" x1="0.03230444444444445" y1="0.96384" x2="1.1768566666666667" y2="-0.1712766666666663" gradientTransform="matrix(90,0,0,90,0,0)" gradientUnits="userSpaceOnUse"><stop offset="0%" stop-opacity="1" style="stop-color:rgb(171,89,193)"/><stop offset="100%" stop-opacity="1" style="stop-color:rgb(113,86,193)"/></linearGradient><path d=" M 82.38 90 L 7.62 90 C 3.41 90 0 86.59 0 82.38 L 0 7.62 C 0 3.41 3.41 0 7.62 0 L 82.39 0 C 86.59 0 90 3.41 90 7.62 L 90 82.39 C 90 86.59 86.59 90 82.38 90 Z " fill="url(#_lgradient_0)"/><g><g style="opacity:0.7;"><g opacity="0.7"><path d=" M 16.607 74.088 L 16.369 74.088 C 12.289 74.088 8.982 70.78 8.982 66.7 L 8.982 26.439 C 8.982 22.359 12.289 19.051 16.369 19.051 L 16.607 19.051 C 20.686 19.051 23.994 22.359 23.994 26.439 L 23.994 66.7 C 23.994 70.78 20.686 74.088 16.607 74.088 Z " fill="rgb(255,255,255)"/></g></g><g><path d=" M 50.187 60.084 L 50.023 60.248 C 47.142 63.13 42.463 63.13 39.574 60.248 L 11.099 31.782 C 8.218 28.901 8.218 24.222 11.099 21.333 L 11.263 21.169 C 14.145 18.288 18.823 18.288 21.712 21.169 L 50.187 49.643 C 53.076 52.524 53.076 57.203 50.187 60.084 Z " fill="rgb(255,255,255)"/></g><g style="opacity:0.7;"><g opacity="0.7"><path d=" M 73.293 74.088 L 73.531 74.088 C 77.611 74.088 80.918 70.78 80.918 66.7 L 80.918 26.439 C 80.918 22.359 77.611 19.051 73.531 19.051 L 73.293 19.051 C 69.214 19.051 65.906 22.359 65.906 26.439 L 65.906 66.7 C 65.906 70.78 69.214 74.088 73.293 74.088 Z " fill="rgb(255,255,255)"/></g></g><g><path d=" M 39.713 60.084 L 39.877 60.248 C 42.758 63.13 47.437 63.13 50.326 60.248 L 78.801 31.774 C 81.682 28.893 81.682 24.214 78.801 21.325 L 78.637 21.161 C 75.755 18.28 71.077 18.28 68.188 21.161 L 39.713 49.635 C 36.832 52.524 36.832 57.203 39.713 60.084 Z " fill="rgb(255,255,255)"/></g></g></g></svg>